<svg width="90" height="81" viewBox="0 0 90 81" fill="none" xmlns="http://www.w3.org/2000/svg">
<path fill-rule="evenodd" clip-rule="evenodd" d="M53.7833 25.4891L49.8748 27.7576C46.7708 29.5596 42.9388 29.5596 39.8348 27.7576L35.9258 25.4891C33.8528 24.2856 32.9253 21.7801 33.7153 19.5171L34.3868 17.5941C34.6673 16.7911 35.4243 16.2526 36.2748 16.2526L53.4343 16.2526C54.2848 16.2526 55.0423 16.7911 55.3223 17.5941L55.9938 19.5171C56.7838 21.7801 55.8563 24.2856 53.7833 25.4891V25.4891ZM82.6223 3.02559C81.2143 2.45859 79.9708 1.57859 78.9653 0.474091L76.3778 8.91759C74.9663 13.5241 71.4283 17.1721 66.8673 18.7241L62.0563 20.3606L60.1323 16.5671C58.4283 13.2076 54.9813 11.0906 51.2138 11.0906L44.8548 11.0906H38.4953C34.7283 11.0906 31.2808 13.2076 29.5768 16.5671L27.6528 20.3606L22.8418 18.7241C18.2808 17.1721 14.7428 13.5241 13.3313 8.91759L10.7438 0.474091C9.73826 1.57859 8.49476 2.45859 7.08626 3.02609L1.89576 27.6831C-0.806737 40.5171 5.14176 53.6186 16.5823 60.0321L39.9643 73.1396C43.0023 74.8426 46.7073 74.8426 49.7443 73.1396L73.1268 60.0321C84.5668 53.6186 90.5153 40.5171 87.8138 27.6831L82.6223 3.02559Z" fill="#00004D"/>
</svg>
