<svg width="50" height="21" viewBox="0 0 50 21" fill="none" xmlns="http://www.w3.org/2000/svg">
<path fill-rule="evenodd" clip-rule="evenodd" d="M41.5 12.2169C42.7705 12.2169 43.9475 12.6144 44.917 13.2884C45.2845 12.6839 45.5 11.9769 45.5 11.2169C45.5 9.00789 43.709 7.21689 41.5 7.21689C39.291 7.21689 37.5 9.00789 37.5 11.2169C37.5 11.9769 37.7155 12.6839 38.083 13.2884C39.0525 12.6144 40.2295 12.2169 41.5 12.2169" fill="#00004D"/>
<path fill-rule="evenodd" clip-rule="evenodd" d="M8.5 12.2169C9.7705 12.2169 10.9475 12.6144 11.917 13.2884C12.2845 12.6839 12.5 11.9769 12.5 11.2169C12.5 9.00789 10.709 7.21689 8.5 7.21689C6.291 7.21689 4.5 9.00789 4.5 11.2169C4.5 11.9769 4.7155 12.6839 5.083 13.2884C6.0525 12.6144 7.2295 12.2169 8.5 12.2169" fill="#00004D"/>
</svg>
