<svg width="40" height="31" viewBox="0 0 40 31" fill="none" xmlns="http://www.w3.org/2000/svg">
<path fill-rule="evenodd" clip-rule="evenodd" d="M32.4998 5.25708C32.4998 12.1611 26.9033 17.7571 19.9998 17.7571C13.0963 17.7571 7.49976 12.1611 7.49976 5.25708L32.4998 5.25708Z" fill="#AE1328"/>
<path fill-rule="evenodd" clip-rule="evenodd" d="M26.9954 15.6174C25.1919 13.8504 22.7244 12.7569 19.9999 12.7569C17.2754 12.7569 14.8079 13.8504 13.0044 15.6174C15.0009 16.9684 17.4079 17.7569 19.9999 17.7569C22.5914 17.7569 24.9994 16.9684 26.9954 15.6174" fill="#FB344F"/>
<path fill-rule="evenodd" clip-rule="evenodd" d="M27.4998 9.25708H12.4998C11.1188 9.25708 9.99976 8.13808 9.99976 6.75708V5.25708L29.9998 5.25708V6.75708C29.9998 8.13808 28.8808 9.25708 27.4998 9.25708" fill="white"/>
</svg>
