<svg width="160" height="146" viewBox="0 0 160 146" fill="none" xmlns="http://www.w3.org/2000/svg">
<path fill-rule="evenodd" clip-rule="evenodd" d="M145.482 124.37C140.176 116.695 132.353 111.116 123.368 108.599L102.5 102.753V87.7533C111.322 81.1263 117.115 70.6978 117.471 58.9013C118.704 59.4448 120.065 59.7528 121.5 59.7528C127.023 59.7528 131.5 55.2758 131.5 49.7528C131.5 44.2298 127.023 39.7528 121.5 39.7528C120.077 39.7528 118.726 40.0543 117.5 40.5903V37.7528C117.5 17.0418 100.711 0.252808 80.0002 0.252808H79.9997C59.2892 0.252808 42.5002 17.0418 42.5002 37.7528V40.5903C41.2742 40.0543 39.9232 39.7528 38.5002 39.7528C32.9772 39.7528 28.5002 44.2298 28.5002 49.7528C28.5002 55.2758 32.9772 59.7528 38.5002 59.7528C39.9347 59.7528 41.2957 59.4453 42.5292 58.9013C42.8847 70.6978 48.6782 81.1263 57.4997 87.7533V102.753L36.6317 108.599C27.6467 111.116 19.8242 116.695 14.5182 124.37L0.000244141 145.373L0.000244141 160.253H160V145.373L145.482 124.37Z" fill="#B5683C"/>
<path fill-rule="evenodd" clip-rule="evenodd" d="M79.9999 95.2526C75.3759 95.2526 70.9499 94.4106 66.8599 92.8801C72.6769 96.5961 79.5849 98.7526 86.9999 98.7526C92.5299 98.7526 97.7744 97.5461 102.5 95.3976V87.7531C96.2324 92.4611 88.4424 95.2526 79.9999 95.2526Z" fill="#A3420B"/>
<path d="M43.8046 51.212C43.9321 50.7475 44.0006 50.258 44.0006 49.753C44.0006 46.7155 41.5381 44.253 38.5006 44.253C37.7411 44.253 37.0176 44.407 36.3596 44.685" stroke="#00004D" stroke-width="2" stroke-linecap="round" stroke-linejoin="round"/>
<path d="M116.196 51.212C116.068 50.7475 116 50.258 116 49.753C116 46.7155 118.463 44.253 121.5 44.253C122.259 44.253 122.983 44.407 123.641 44.685" stroke="#00004D" stroke-width="2" stroke-linecap="round" stroke-linejoin="round"/>
</svg>
