<svg width="160" height="145" viewBox="0 0 160 145" fill="none" xmlns="http://www.w3.org/2000/svg">
<path fill-rule="evenodd" clip-rule="evenodd" d="M145.482 124.118C140.176 116.442 132.353 110.863 123.368 108.346L102.5 102.5V87.5006C111.322 80.8736 117.115 70.4451 117.471 58.6486C118.704 59.1921 120.065 59.5001 121.5 59.5001C127.023 59.5001 131.5 55.0231 131.5 49.5001C131.5 43.9771 127.023 39.5001 121.5 39.5001C120.077 39.5001 118.726 39.8016 117.5 40.3376V37.5001C117.5 16.7891 100.711 0.000152588 80.0002 0.000152588L79.9997 0.000152588C59.2892 0.000152588 42.5002 16.7891 42.5002 37.5001V40.3376C41.2742 39.8016 39.9232 39.5001 38.5002 39.5001C32.9772 39.5001 28.5002 43.9771 28.5002 49.5001C28.5002 55.0231 32.9772 59.5001 38.5002 59.5001C39.9347 59.5001 41.2957 59.1926 42.5292 58.6486C42.8847 70.4451 48.6782 80.8736 57.4997 87.5006V102.5L36.6317 108.346C27.6467 110.863 19.8242 116.442 14.5182 124.118L0.000244141 145.12L0.000244141 160H160V145.12L145.482 124.118Z" fill="#F5CDD3"/>
<path fill-rule="evenodd" clip-rule="evenodd" d="M79.9999 94.9999C75.3759 94.9999 70.9499 94.1579 66.8599 92.6274C72.6769 96.3434 79.5849 98.4999 86.9999 98.4999C92.5299 98.4999 97.7744 97.2934 102.5 95.1449V87.5004C96.2324 92.2084 88.4424 94.9999 79.9999 94.9999Z" fill="#F48C9D"/>
<path d="M43.8046 50.9594C43.9321 50.4949 44.0006 50.0054 44.0006 49.5004C44.0006 46.4629 41.5381 44.0004 38.5006 44.0004C37.7411 44.0004 37.0176 44.1544 36.3596 44.4324" stroke="#00004D" stroke-linecap="round" stroke-linejoin="round"/>
<path d="M116.196 50.9594C116.068 50.4949 116 50.0054 116 49.5004C116 46.4629 118.463 44.0004 121.5 44.0004C122.259 44.0004 122.983 44.1544 123.641 44.4324" stroke="#00004D" stroke-linecap="round" stroke-linejoin="round"/>
</svg>
