<svg width="160" height="146" viewBox="0 0 160 146" fill="none" xmlns="http://www.w3.org/2000/svg">
<path fill-rule="evenodd" clip-rule="evenodd" d="M145.482 125.091C140.176 117.415 132.353 111.836 123.368 109.319L102.5 103.473V88.4735C111.322 81.8465 117.115 71.418 117.471 59.6215C118.704 60.165 120.065 60.473 121.5 60.473C127.023 60.473 131.5 55.996 131.5 50.473C131.5 44.95 127.023 40.473 121.5 40.473C120.077 40.473 118.726 40.7745 117.5 41.3105V38.473C117.5 17.762 100.711 0.973022 80.0002 0.973022H79.9997C59.2892 0.973022 42.5002 17.762 42.5002 38.473V41.3105C41.2742 40.7745 39.9232 40.473 38.5002 40.473C32.9772 40.473 28.5002 44.95 28.5002 50.473C28.5002 55.996 32.9772 60.473 38.5002 60.473C39.9347 60.473 41.2957 60.1655 42.5292 59.6215C42.8847 71.418 48.6782 81.8465 57.4997 88.4735V103.473L36.6317 109.319C27.6467 111.836 19.8242 117.415 14.5182 125.091L0.000244141 146.093V160.973H160V146.093L145.482 125.091Z" fill="#FFCF83"/>
<path fill-rule="evenodd" clip-rule="evenodd" d="M79.9999 95.9728C75.3759 95.9728 70.9499 95.1308 66.8599 93.6003C72.6769 97.3163 79.5849 99.4728 86.9999 99.4728C92.5299 99.4728 97.7744 98.2663 102.5 96.1178V88.4733C96.2324 93.1813 88.4424 95.9728 79.9999 95.9728Z" fill="#F7A74F"/>
<path d="M43.8046 51.9323C43.9321 51.4678 44.0006 50.9783 44.0006 50.4733C44.0006 47.4358 41.5381 44.9733 38.5006 44.9733C37.7411 44.9733 37.0176 45.1273 36.3596 45.4053" stroke="#00004D" stroke-linecap="round" stroke-linejoin="round"/>
<path d="M116.196 51.9323C116.068 51.4678 116 50.9783 116 50.4733C116 47.4358 118.463 44.9733 121.5 44.9733C122.259 44.9733 122.983 45.1273 123.641 45.4053" stroke="#00004D" stroke-linecap="round" stroke-linejoin="round"/>
</svg>
