<svg width="180" height="181" viewBox="0 0 180 181" fill="none" xmlns="http://www.w3.org/2000/svg">
<path fill-rule="evenodd" clip-rule="evenodd" d="M90 62.9263L116.576 78.3948C123.34 82.3313 127.073 89.5658 127.073 97.3913V98.3918C134.804 98.3918 141.5 92.1238 141.5 84.3918V70.0888C141.5 60.6198 137.115 51.6838 129.623 45.8913L114.468 34.1728C100.059 23.0303 79.941 23.0303 65.5315 34.1728L50.377 45.8913C42.8855 51.6838 38.5 60.6198 38.5 70.0888V84.3918C38.5 92.1238 45.1775 98.3918 52.9095 98.3918V97.3913C52.9095 89.5658 56.66 82.3313 63.4235 78.3948L90 62.9263Z" fill="#F5F5F8"/>
<path d="M90 62.9264L119.387 45.8224" stroke="#00004D" stroke-linecap="round" stroke-linejoin="round"/>
<path d="M82.7647 42.4234C82.7647 42.4234 47.5912 72.3029 42.8297 76.3864C40.3552 78.5084 39.0002 80.8799 39.0002 84.0659" stroke="#00004D" stroke-linecap="round" stroke-linejoin="round"/>
<path d="M108.615 52.0924C108.615 52.0924 132.409 72.3029 137.17 76.3864C139.645 78.5084 141 80.8799 141 84.0659" stroke="#00004D" stroke-linecap="round" stroke-linejoin="round"/>
</svg>
