<svg width="77" height="48" viewBox="0 0 77 48" fill="none" xmlns="http://www.w3.org/2000/svg">
<path fill-rule="evenodd" clip-rule="evenodd" d="M56.6727 7.91541L45.6852 3.82691C44.7122 3.46541 43.7172 3.18591 42.7107 2.98091V2.88141C42.7107 1.60591 41.6767 0.571411 40.4012 0.571411L37.0202 0.571411C35.7452 0.571411 34.7107 1.60591 34.7107 2.88141V2.98091C33.7042 3.18591 32.7092 3.46541 31.7362 3.82691L20.7487 7.91541C9.00219 12.2864 1.21069 23.4989 1.21069 36.0319L1.21069 44.4994L38.7107 39.4994L76.2107 44.4994V36.0319C76.2107 23.4989 68.4192 12.2864 56.6727 7.91541" fill="#2384F5"/>
<path d="M38.7358 3.57166C38.7358 3.57166 16.1448 9.10465 16.1448 39.4827" stroke="#00004D" stroke-linecap="round" stroke-linejoin="round"/>
<path d="M38.7356 3.57166C38.7356 3.57166 48.8936 6.05966 55.5866 16.8587" stroke="#00004D" stroke-linecap="round" stroke-linejoin="round"/>
<path fill-rule="evenodd" clip-rule="evenodd" d="M1.23083 44.4872C6.75683 41.0752 12.7908 38.5432 19.1603 36.8287C25.5293 35.1277 32.1763 34.3697 38.7108 34.3717C45.2453 34.3697 51.8923 35.1277 58.2613 36.8287C64.6308 38.5432 70.6648 41.0752 76.1908 44.4872C76.9138 44.9342 77.1383 45.8827 76.6918 46.6062C76.3763 47.1172 75.8103 47.3792 75.2508 47.3312L75.2313 47.3297C72.0258 47.0522 68.9178 46.6057 65.8403 46.2262C62.7658 45.8327 59.7383 45.4632 56.7278 45.1842C50.7148 44.5977 44.7613 44.3722 38.7108 44.3717C32.6603 44.3722 26.7068 44.5977 20.6938 45.1842C17.6833 45.4632 14.6558 45.8327 11.5813 46.2262C8.50383 46.6057 5.39583 47.0522 2.19033 47.3297L2.17283 47.3312C1.32533 47.4047 0.57933 46.7772 0.50633 45.9302C0.45433 45.3317 0.75383 44.7837 1.23083 44.4872" fill="#000066"/>
</svg>
