<svg width="96" height="59" viewBox="0 0 96 59" fill="none" xmlns="http://www.w3.org/2000/svg">
<path fill-rule="evenodd" clip-rule="evenodd" d="M95.1777 15.9733C95.1777 7.68883 88.4617 0.973328 80.1777 0.973328C71.8937 0.973328 65.1777 7.68883 65.1777 15.9733C65.1777 16.4453 65.2022 16.9118 65.2452 17.3728C60.0232 14.8738 54.1757 13.4718 48.0002 13.4718C41.5527 13.4718 35.4672 15.0063 30.0737 17.7158C30.1402 17.1438 30.1777 16.5633 30.1777 15.9733C30.1777 7.68883 23.4617 0.973328 15.1777 0.973328C6.89373 0.973328 0.177734 7.68883 0.177734 15.9733C0.177734 24.1748 6.76123 30.8348 14.9317 30.9668C10.5592 37.3793 8.00023 45.1258 8.00023 53.4718V55.5963C10.3887 55.9568 12.4977 57.1563 14.0182 58.8928L14.1137 58.8693L16.1137 48.8693H57.0607V34.4618L61.9767 48.8693H79.8862L81.8862 58.8693L81.9782 58.8973C83.4992 57.1583 85.6092 55.9573 88.0002 55.5963V53.4718C88.0002 45.1163 85.4347 37.3618 81.0537 30.9453C88.9297 30.4918 95.1777 23.9628 95.1777 15.9733" fill="#00004D"/>
</svg>
