<svg width="19" height="20" viewBox="0 0 19 20" fill="none" xmlns="http://www.w3.org/2000/svg">
<path fill-rule="evenodd" clip-rule="evenodd" d="M18.911 10.404C18.861 10.534 18.787 10.656 18.683 10.761L10.731 18.714C10.331 19.113 9.684 19.113 9.285 18.714C8.886 18.314 8.886 17.668 9.285 17.268L15.553 11H1C0.448 11 0 10.552 0 10C0 9.447 0.448 9 1 9H15.555L9.285 2.729C8.886 2.33 8.886 1.682 9.285 1.283C9.684 0.883002 10.331 0.883002 10.731 1.283L18.683 9.235C18.788 9.341 18.862 9.465 18.912 9.596C18.967 9.72 19 9.855 19 10C19 10.144 18.966 10.28 18.911 10.404Z" fill="#8F75BE"/>
</svg>
